<?xml version="1.0" standalone="no"?><!DOCTYPE svg PUBLIC "-//W3C//DTD SVG 1.1//EN" "http://www.w3.org/Graphics/SVG/1.1/DTD/svg11.dtd"><svg t="1781391596858" class="icon" viewBox="0 0 1753 1024" version="1.1" xmlns="http://www.w3.org/2000/svg" p-id="19932" xmlns:xlink="http://www.w3.org/1999/xlink" width="342.3828125" height="200"><path d="M1464.437515 0a122.03646 122.03646 0 0 1 122.03646 122.03646v183.054689h54.916406a30.509115 30.509115 0 0 1 30.509115 30.509115v305.091149a30.509115 30.509115 0 0 1-30.509115 30.509115H1586.473975v183.054689a122.03646 122.03646 0 0 1-122.03646 122.03646H122.03646a122.03646 122.03646 0 0 1-122.03646-122.03646V122.03646a122.03646 122.03646 0 0 1 122.03646-122.03646h1342.401055z m-91.527345 122.03646h-1159.346366A91.527345 91.527345 0 0 0 122.03646 213.563804v549.164068A91.527345 91.527345 0 0 0 213.563804 854.255217h1159.346366a91.527345 91.527345 0 0 0 91.527345-91.527345v-549.164068A91.527345 91.527345 0 0 0 1372.91017 122.03646z" fill="#EF2B23" p-id="19933"></path><path d="M244.072919 183.054689m30.509115 0l61.01823 0q30.509115 0 30.509115 30.509115l0 549.164068q0 30.509115-30.509115 30.509115l-61.01823 0q-30.509115 0-30.509115-30.509115l0-549.164068q0-30.509115 30.509115-30.509115Z" fill="#EF2B23" p-id="19934"></path><path d="M488.145838 183.054689m30.509115 0l61.01823 0q30.509115 0 30.509115 30.509115l0 549.164068q0 30.509115-30.509115 30.509115l-61.01823 0q-30.509115 0-30.509115-30.509115l0-549.164068q0-30.509115 30.509115-30.509115Z" fill="#EF2B23" fill-opacity=".2" p-id="19935"></path><path d="M732.218758 183.054689m30.509114 0l61.01823 0q30.509115 0 30.509115 30.509115l0 549.164068q0 30.509115-30.509115 30.509115l-61.01823 0q-30.509115 0-30.509114-30.509115l0-549.164068q0-30.509115 30.509114-30.509115Z" fill="#EF2B23" fill-opacity=".2" p-id="19936"></path><path d="M976.291677 183.054689m30.509115 0l61.018229 0q30.509115 0 30.509115 30.509115l0 549.164068q0 30.509115-30.509115 30.509115l-61.018229 0q-30.509115 0-30.509115-30.509115l0-549.164068q0-30.509115 30.509115-30.509115Z" fill="#EF2B23" fill-opacity=".2" p-id="19937"></path><path d="M1220.364596 183.054689m30.509115 0l61.01823 0q30.509115 0 30.509114 30.509115l0 549.164068q0 30.509115-30.509114 30.509115l-61.01823 0q-30.509115 0-30.509115-30.509115l0-549.164068q0-30.509115 30.509115-30.509115Z" fill="#EF2B23" fill-opacity=".2" p-id="19938"></path></svg>