<?xml version="1.0" standalone="no"?><!DOCTYPE svg PUBLIC "-//W3C//DTD SVG 1.1//EN" "http://www.w3.org/Graphics/SVG/1.1/DTD/svg11.dtd"><svg t="1781378789659" class="icon" viewBox="0 0 1024 1024" version="1.1" xmlns="http://www.w3.org/2000/svg" p-id="15889" xmlns:xlink="http://www.w3.org/1999/xlink" width="200" height="200"><path d="M132.608 520.789333L125.44 514.56a64 64 0 0 1-6.229333-83.285333l6.229333-7.168 341.333333-341.333334a64 64 0 0 1 83.285334-6.229333L557.226667 82.773333l341.333333 341.333334a64 64 0 0 1-83.285333 96.682666L808.106667 514.56 512 218.538667l-296.106667 296.106666a64 64 0 0 1-83.285333 6.144z m0 426.666667l-7.168-6.229333a64 64 0 0 1-6.229333-83.285334l6.229333-7.168 341.333333-341.333333a64 64 0 0 1 83.285334-6.229333l7.168 6.229333 341.333333 341.333333a64 64 0 0 1-83.285333 96.682667l-7.168-6.229333L512 645.205333l-296.106667 296.106667a64 64 0 0 1-83.285333 6.144z" p-id="15890"></path></svg>