<?xml version="1.0" standalone="no"?><!DOCTYPE svg PUBLIC "-//W3C//DTD SVG 1.1//EN" "http://www.w3.org/Graphics/SVG/1.1/DTD/svg11.dtd"><svg t="1781378804743" class="icon" viewBox="0 0 1024 1024" version="1.1" xmlns="http://www.w3.org/2000/svg" p-id="16043" xmlns:xlink="http://www.w3.org/1999/xlink" width="200" height="200"><path d="M891.392 503.210667l7.168 6.229333a64 64 0 0 1 6.229333 83.285333l-6.229333 7.168-341.333333 341.333334a64 64 0 0 1-83.285334 6.229333l-7.168-6.229333-341.333333-341.333334a64 64 0 0 1 83.285333-96.682666l7.168 6.229333L512 805.461333l296.106667-296.106666a64 64 0 0 1 83.285333-6.144z m0-426.666667l7.168 6.229333a64 64 0 0 1 6.229333 83.285334l-6.229333 7.168-341.333333 341.333333a64 64 0 0 1-83.285334 6.229333L466.773333 514.56l-341.333333-341.333333A64 64 0 0 1 208.725333 76.544L215.893333 82.773333 512 378.794667 808.106667 82.688a64 64 0 0 1 83.285333-6.144z" p-id="16044"></path></svg>