<?xml version="1.0" standalone="no"?><!DOCTYPE svg PUBLIC "-//W3C//DTD SVG 1.1//EN" "http://www.w3.org/Graphics/SVG/1.1/DTD/svg11.dtd"><svg t="1781391453358" class="icon" viewBox="0 0 1024 1024" version="1.1" xmlns="http://www.w3.org/2000/svg" p-id="17041" xmlns:xlink="http://www.w3.org/1999/xlink" width="200" height="200"><path d="M543.067341 843.934925c-189.901722 0-343.85623-153.949286-343.85623-343.841075 0-189.918515 153.954509-343.841075 343.85623-343.841075 189.89865 0 343.855206 153.922662 343.855206 343.841075C886.922547 689.985741 732.966912 843.934925 543.067341 843.934925zM543.067341 211.266662c-159.517491 0-288.839987 129.317274-288.839987 288.827187s129.322598 288.827187 288.839987 288.827187c159.516467 0 288.836915-129.31625 288.836915-288.827187S702.583706 211.266662 543.067341 211.266662zM495.975936 579.769446l-21.651968-167.355597 0-91.170442 137.487844 0 0 91.170442-21.651968 167.355597L495.975903 579.769446zM596.60585 706.399539 492.374741 706.399539 492.374741 636.17923l104.231077 0L596.605818 706.399525z" p-id="17042"></path></svg>